<svg viewBox="0 0 400 300" fill="none" xmlns="http://www.w3.org/2000/svg"><g clip-path="url(#a)"><path d="m279.059 125.918-3.312-8.462 3.877-4.481 2.352 7.632 23.266 2.22-1.532 3.712-24.651-.621Z" fill="#D8BAFB"/><path d="m291.422 80.307-26.338-1.436 16.393 43.36 22.646 1.448-12.701-43.372Z" fill="#4F2EA1"/><path d="M310.087 166.345c-10.936 8.043-49.809 22.159-56.811 27.49l5.495 60.971c5.662-4.232 21.573-12.327 31.7-18.931 22.173-14.461 44.942-28.225 54.677-44.908 4.645-7.961 6.108-18.107 2.118-32.813-8.053-30.066-21.706-52.949-31.371-64.208-7.732-9.008-18.13-11.185-22.362-11.148l-43.768-.124c-3.389-.252-10.174.208-10.208 4.069-.034 3.86 6.168 5.053 9.273 5.167l10.759.837c-1.095.658-3.277 2.822-3.247 6.208.029 3.386 3.596 4.709 5.376 4.948-.277.566-.642 2.088.117 3.639 1.517 3.102 4.995 3.286 6.545 2.99-.528.936-1.462 3.247-.972 5.003.915 3.988 6.99 4.438 10.175 3.959-.257-.336-.402-1.624-1.019-2.431 5.729-3.098 17.445-2.495 22.587-1.807 7.883 17.297 9.815 46.833 10.936 51.089Z" fill="#E01E67"/><path d="M315.216 114.931c-5.724 2.642-11.447 4.013-14.529 4.013 1.027 2.788 4.051 13.862 4.403 16.68 9.245-1.761 12.768-3.082 17.17-6.164-.88-1.174-4.578-9.246-7.044-14.529Z" fill="#1F9E92"/><ellipse cx="325.219" cy="118.28" rx="11.253" ry="12.92" transform="rotate(-25.516 325.219 118.28)" fill="#5CE0D2"/><path d="m322.701 110.088 2.201 8.365 7.925 3.962" stroke="#000" stroke-width=".904"/><path d="m266.346 249.705-11.007-57.676v57.676c.88 1.027 2.994 3.082 4.403 3.082 1.408 0 4.989-2.055 6.604-3.082Z" fill="#181818"/><path d="m257.158 279.251-7.25-25.548h-64.561v25.548h71.811Z" fill="#E01E67"/><path d="M242.768 145.688c6.095 6.095 7.618 35.682 7.195 43.866l-18.2 11.158-34.284-2.963-17.354-19.893 19.047-17.777c11.992-7.337 37.501-20.486 43.596-14.391Z" fill="#111014"/><path fill-rule="evenodd" clip-rule="evenodd" d="M243.992 152.951c-.797 12.864-11.842 23.058-25.35 23.058-8.501 0-16.027-4.038-20.636-10.238a10.55 10.55 0 0 1-4.337.926c-5.844 0-10.581-4.737-10.581-10.581 0-5.844 4.737-10.582 10.581-10.582.108 0 .215.002.321.005 2.741-10.698 12.738-18.628 24.652-18.628 6.795 0 12.966 2.579 17.523 6.78a10.532 10.532 0 0 1 5.756-1.701c5.844 0 10.581 4.738 10.581 10.582 0 5.135-3.658 9.416-8.51 10.379Z" fill="#E01E67"/><path d="m232.369 153.126-19.291-2.172c-.177 2.784 1.606 10.178 8.859 11.238 6.404.936 9.588-4.651 10.432-9.066Z" fill="#fff"/><path d="M232.609 114.367c-5.418-9.481-18.623-1.411-24.549 3.809-.564-1.27-2.54-3.471-5.926-2.116-4.232 1.693-2.539 10.158 0 13.967-3.527 2.309-10.073 8.673-8.042 15.661l9.735 3.809c5.08-7.326 4.938-16.032 4.233-19.47.564.424 2.37 1.355 5.079 1.693 3.386.424 26.242-5.502 19.47-17.353Z" fill="#111014"/><path d="M218.784 189.499c-11.079-.075-25.183-6.892-28.619-10.06v25.386l31.172 59.359c-.611.412-1.151 23.051 9.265 24.457 10.415 1.406 28.159-7.961 30.474-12.275l-5.285-86.867c-1.932-2.346-9.345-7.756-14.185-4.98-5.815 3.335-8.974 5.073-22.822 4.98Z" fill="#7453E9"/><mask id="b" style="mask-type:alpha" maskUnits="userSpaceOnUse" x="190" y="179" width="72" height="110"><path d="M218.784 189.499c-11.079-.075-25.183-6.892-28.619-10.06v25.386l31.172 59.359c-.611.412-1.151 23.051 9.265 24.457 10.415 1.406 28.159-7.961 30.474-12.275l-5.285-86.867c-1.932-2.346-9.345-7.756-14.185-4.98-5.815 3.335-8.974 5.073-22.822 4.98Z" fill="#7453E9"/></mask><g mask="url(#b)"><path opacity=".6" d="m180.493 249.705 82.331-61.198-15.409 3.963 1.32 19.812 5.724 9.686 2.201 12.327c-1.174 7.485-4.931 21.045-10.566 15.41-5.636-5.636-45.202-48.137-64.28-68.683l33.901 62.079 51.512-41.826-83.212 13.208 21.133 25.536-1.761-54.154 27.297 59.877 34.782-22.453-18.051-42.267-21.134 4.843 28.178 66.041-39.625-64.279" stroke="#fff" stroke-width=".361"/></g><path d="M139.329 247.488c7.181 5.8 8.516 23.822 8.286 32.108h-30.727l-15.882-90.11c.115-.805 2.831-4.626 12.775-13.465 9.943-8.838 56.62-10.587 78.716-10.357v10.357s2.442 4.61 2.442 13.465-2.442 14.848-2.442 14.848l-20.715 4.486h-29.001l-10.012-6.56c1.726 11.854 5.455 37.494 6.56 45.228Z" fill="#E01E67"/><path d="M74.111 131.136c1.819-4.995 7.195-7.974 12.38-6.835a10.681 10.681 0 0 1 7.55 6.064c1.198 2.701 4.267 3.848 7.109 3.027 24.998-7.415 28.928 5.994 56.609 5.793 30.116-.247 31.869 22.479 31.869 22.479s-2.146 15.509-5.89 22.108c-4.324 7.684-22.435 25.205-63.157-1.493-16.277-10.7-27.435 4.022-34.174-30.998-.56-2.777-1.873-5.272-4.647-5.929-.208-.063-.47-.128-.678-.19-5.895-1.807-9.092-8.198-6.97-14.026Z" fill="#EA5732"/><path d="M132.363 171.184c1.528-.988 3.174-1.123 4.64-.791-1.581-12.718 6.291-25.052 18.999-28.697 12.708-3.645 25.907 2.68 31.295 14.304 1.055-1.062 2.517-1.788 4.367-1.755 2.22.05 4.328 1.364 5.294 3.366 1.691 3.465-.239 7.449-3.777 8.45a6.039 6.039 0 0 1-2.338.209c-.578-.08-1.075.373-1.102.954-.002 11.481-7.582 22.083-19.164 25.41-11.583 3.326-23.629-1.623-29.738-11.376-.295-.49-.979-.574-1.418-.224-.605.501-1.309.839-2.113 1.066-3.538 1-7.24-1.34-7.645-5.168-.262-2.34.794-4.567 2.7-5.748Z" fill="#FFB455"/><path d="M159.793 167.436c-2.706-.125-3.608 2.517-3.66 3.644-1.633-1.347-3.587-2.708-5.337-1.518-1.749 1.19-1.506 2.896-.215 4.651 1.171 1.59 6.255 5.233 8.586 6.753l2.486-7.936c.507-1.812.846-5.469-1.86-5.594Z" fill="#FFF59E"/><path d="M151.416 141.326s28.089-6.743 36.457 14.807c-.499.506-.838.967-1.176 1.427-.625.924-2 .913-2.645-.016-2.172-3.381-6.496-9.401-9.788-8.019-1.889.812-11.096 25.994-34.572 17.66-5.622-2.006-6.775 2.332-9.796 7.007-.613-24.472 21.52-32.866 21.52-32.866ZM61.815 132.737a4.864 4.864 0 1 1 .452-9.717 4.864 4.864 0 0 1-.452 9.717ZM50.969 120.172a1.374 1.374 0 1 1 .127-2.746 1.374 1.374 0 0 1-.127 2.746Z" fill="#EA5732"/><path d="M153.089 205.453c-4.972-.829-17.263-1.957-22.787-2.417l3.453 76.645h60.764c2.071-22.096 6.995-67.651 7.548-74.003-8.632-3.453-19.287-2.642-25.501-.225-6.215 2.417-17.263 1.036-23.477 0Z" fill="#FFEF5E"/><path d="M173.181 234.762a15.83 15.83 0 0 0 9.77-.377l-1.778-4.895-.503-1.402a9.125 9.125 0 0 1-5.271.314 9.266 9.266 0 0 1-5.921-4.331 9.52 9.52 0 0 1-.732-1.548l-6.276 2.301 9.184 25.188a5.626 5.626 0 0 1-3.41 7.009 5.899 5.899 0 0 1-2.678.293 5.632 5.632 0 0 1-4.728-4.268c-.523-2.134.335-4.393 2.05-5.753a5.327 5.327 0 0 1 3.138-1.151l-1.799-4.937-.544-1.485c-.544.125-1.067.272-1.611.46-6.38 2.322-9.686 9.414-7.343 15.795a12.308 12.308 0 0 0 8.389 7.678c2.783.753 5.837.543 8.682-.879 5.649-2.803 8.138-9.561 5.962-15.481l-4.581-12.531Z" fill="#4634B5"/><path d="M225.642 232.297c3.59 8.562 4.948 34.87 5.178 46.954h-36.251c2.072-21.981 6.038-67.571 7.143-73.648 12.083 2.072 19.442 15.991 23.93 26.694Z" fill="#FFB455"/><path d="M139.329 247.488c7.182 5.8 8.517 23.822 8.286 32.108h-30.727l15.882-77.336c1.726 11.854 5.455 37.495 6.559 45.228Z" fill="#E01E67"/><path d="m131.623 252.346-3.082-29.938-3.522 29.938h6.604Z" fill="#000"/><path d="m129.317 222.285-4.488 56.966H80.637c4.834-32.453 15.191-54.894 18.644-62.835-1.934-4.696-1.957-14.386-1.727-18.644-.46-1.726-.76-5.8 1.727-8.286 2.486-2.485 4.028-1.035 4.488 0-.23-1.265-.069-4.143 2.417-5.524 4.143-1.657 6.099.461 6.559 1.727l-.345-12.775c-.46-4.373-.69-13.395 2.072-14.5 4.419-1.381 6.444 6.099 6.905 10.012l1.381 18.298 6.559-16.226c.576-2.417 2.348-7.181 4.834-6.905 2.486.276 3.107 4.718 3.107 6.905-1.611 5.984-5.11 18.781-6.214 22.096-1.105 3.314-.461 4.833 0 5.178.92 1.381 2.831 5.386 3.107 10.358.276 4.971-3.107 11.508-4.834 14.155ZM162.044 214.526c-5.78-2.424-9.036-6.79-10.609-9.288 0 0 9.484 1.32 15.41 1.32 5.925 0 10.126-1.32 10.126-1.32-.983 6.882-8.516 11.976-14.927 9.288Z" fill="#FFB455"/><path d="M118.967 223.453c-2.884-3.114-6.921-10.935 0-17.303-2.076-1.384-10.036-4.498-10.728-11.073-.553-5.26 1.615-5.883 2.769-5.537 1.153.577 3.806 1.869 5.19 2.422 1.731.693 11.42 3.807 13.15 6.229" stroke="#000" stroke-width="1.084" stroke-linecap="round"/><path d="M112.738 187.117c.346 1.154 1.107 3.599 1.384 4.153M97.165 194.731c1.154 4.845 4.499 14.188 8.652 12.804 4.152-1.384 1.73-10.959 0-15.573" stroke="#000" stroke-width="1.084" stroke-linecap="round"/><path d="M114.122 203.382c-1.384.577-4.499 1.107-5.883-1.384M131.425 164.97l-9.343 23.878" stroke="#000" stroke-width="1.084" stroke-linecap="round"/></g><path d="M215.278 76.278c2.07 3.75 5.174 6.855 8.796 8.796-3.751 2.07-6.855 5.174-8.796 8.796-2.069-3.751-5.175-6.856-8.797-8.796 3.622-2.07 6.728-5.045 8.797-8.796ZM231.945 66.093c1.198 2.171 2.995 3.969 5.092 5.092-2.172 1.198-3.969 2.996-5.092 5.093-1.199-2.172-2.997-3.97-5.093-5.093 2.096-1.198 3.894-2.92 5.093-5.093Z" fill="#FFB455"/><path d="m63.182 218.651-5.392 2.579-4.26-9.294-12.092 5.773-5.481-11.955-9.39 4.497-2.441-5.321 14.772-7.067 5.482 11.955 12.091-5.773 6.711 14.606Z" fill="#E01E67"/><path d="M382.379 132.703a5.528 5.528 0 1 0 0-11.056 5.528 5.528 0 0 0 0 11.056Z" fill="#5CE0D2"/><path d="M356.017 242.944c-7.926 0-14.35 6.426-14.35 14.353h28.703c0-7.927-6.427-14.353-14.353-14.353Z" fill="#7DB5FF"/><path stroke="#000" stroke-width=".926" stroke-linecap="round" d="M.463 257.296h399.074"/><path opacity=".3" d="m156.481 104.055-28.946-33.466M152.579 110.191l-53.042-34.84" stroke="#E01E67" stroke-width=".926"/><circle opacity=".3" cx="161.574" cy="114.703" r="5.093" stroke="#E01E67" stroke-width=".926"/><defs><clipPath id="a"><path fill="#fff" transform="translate(46.296 54.055)" d="M0 0h347.222v203.704H0z"/></clipPath></defs></svg>