<svg viewBox="0 0 400 300" fill="none" xmlns="http://www.w3.org/2000/svg"><path d="M300.655 93.381H100.918v111.664h199.737V93.381Z" stroke="#F6BCD1" stroke-width="1.573" stroke-linecap="round" stroke-linejoin="round"/><path d="M292.791 99.672h-184.01v99.082h184.01V99.672ZM200.785 205.046h99.672l33.224 36.173H67.89l33.224-36.173h99.671Z" stroke="#F6BCD1" stroke-width="1.573" stroke-linecap="round" stroke-linejoin="round"/><path d="M333.681 241.218H67.89v4.718H333.68v-4.718ZM197.236 208.191h94.389l15.321 18.873H94.627l15.32-18.873h87.289Z" stroke="#F6BCD1" stroke-width="1.573" stroke-linecap="round" stroke-linejoin="round"/><path d="m249.298 71.891 45.274-18.048a1.102 1.102 0 0 1 1.431.615l21.545 54.047-47.319 18.864-21.546-54.048a1.101 1.101 0 0 1 .615-1.43Z" fill="#fff" stroke="#5783FC" stroke-width=".944"/><path d="M264.873 80.906a4.067 4.067 0 1 0-5.751-5.75 4.067 4.067 0 0 0 5.751 5.75Z" fill="#22D5EC"/><path d="m271.418 74.263 20.823-8.329" stroke="#5783FC" stroke-width=".629" stroke-miterlimit="10" stroke-linecap="round" stroke-linejoin="round"/><path d="M269.831 93.399a4.067 4.067 0 1 0-5.751-5.751 4.067 4.067 0 0 0 5.751 5.75Z" fill="#FF3175"/><path d="m276.426 86.804 20.822-8.329M277.851 101.244l24.353-10.274M276.276 116.186l30.983-12.721" stroke="#5783FC" stroke-width=".629" stroke-miterlimit="10" stroke-linecap="round" stroke-linejoin="round"/><path d="m258.811 87.058-80.215-15.916a3.145 3.145 0 0 0-3.697 2.473l-19.523 98.389a3.146 3.146 0 0 0 2.473 3.698l83.301 16.528 20.134-101.474a3.145 3.145 0 0 0-2.473-3.698Z" fill="#011650" stroke="#011650" stroke-width=".779" stroke-miterlimit="10" stroke-linecap="round" stroke-linejoin="round"/><path d="m214.664 198.607-53.357-14.802a3.146 3.146 0 0 1-2.186-3.888l27.325-96.513a3.146 3.146 0 0 1 3.882-2.17l78.716 22.239a3.146 3.146 0 0 1 2.166 3.901l-26.387 91.233h-30.159Z" fill="#5783FC"/><path d="M207.261 128.658c9.424-1.24 16.059-9.885 14.819-19.309-1.24-9.424-9.885-16.059-19.309-14.819-9.424 1.24-16.059 9.885-14.819 19.309 1.24 9.424 9.885 16.059 19.309 14.819Z" stroke="#fff" stroke-width=".779" stroke-miterlimit="10" stroke-linecap="round" stroke-linejoin="round"/><path d="M214.101 114.232c2.591-9.145.618-17.713-4.408-19.137-5.025-1.424-11.2 4.835-13.792 13.979-2.591 9.145-.618 17.713 4.408 19.138 5.025 1.424 11.2-4.835 13.792-13.98ZM209.725 95.1l-9.336 33.054M188.531 106.959l33.054 9.336M192.866 99.508l28.921 8.237M188.327 115.51l28.921 8.237" stroke="#fff" stroke-width=".779" stroke-miterlimit="10" stroke-linecap="round" stroke-linejoin="round"/><path d="m232.715 112.515 24.2 6.825M251.5 132.346l1.377.366M228.669 125.81l17.543 4.964M180.738 134.494l67.659 19.171M177.579 145.543l67.659 19.171M214.294 167.847l18.025 5.057M174.486 156.508l34.278 9.722" stroke="#fff" stroke-width="1.043" stroke-miterlimit="10" stroke-linecap="round" stroke-linejoin="round"/><path opacity=".4" d="m239.137 186.378-67.651-19.171-2.177 7.683 67.651 19.171 2.177-7.683Z" fill="#fff"/><path fill-rule="evenodd" clip-rule="evenodd" d="M112.768 78.434c6.155-1.916 9.579-8.5 7.647-14.706-1.932-6.207-8.487-9.685-14.642-7.77-6.155 1.917-9.58 8.5-7.647 14.707 1.931 6.206 8.487 9.685 14.642 7.769Z" fill="#FFD44C"/><path fill-rule="evenodd" clip-rule="evenodd" d="M105.555 66.234c.589-.184.908-.843.712-1.474-.196-.63-.833-.992-1.422-.809-.59.183-.908.843-.712 1.473.196.63.833.993 1.422.81Zm-.416 2.424 8.358-2.602.18.576a4.377 4.377 0 0 1-8.359 2.602l-.179-.576Zm7.175-5.78c.197.63-.122 1.29-.711 1.474-.59.183-1.227-.18-1.423-.81-.196-.63.123-1.29.712-1.473.589-.184 1.226.179 1.422.81Z" fill="#fff"/><path d="M190.499 236.963h21.244" stroke="#011650" stroke-width="1.573" stroke-linecap="round" stroke-linejoin="round"/><path fill="#DFE8FE" d="m336.827 207.924 4.445-4.452 4.452 4.445-4.445 4.452z"/><path d="M330.42 157.785c-1.455 5.354-7.036 8.531-12.466 7.097l5.269-19.389c5.43 1.435 8.652 6.938 7.197 12.292Z" fill="#22D5EC"/><path d="M57.594 105.745c-.026-1.217 1.26-2.015 2.314-1.436l4.793 2.633c1.054.58 1.086 2.102.058 2.74l-4.675 2.901c-1.029.638-2.347-.086-2.373-1.304l-.117-5.534Z" fill="#5783FC"/><ellipse cx="153.877" cy="116.819" rx="26.826" ry="27.316" transform="rotate(.702 153.877 116.819)" fill="#011650"/><circle cx="148.556" cy="113.275" r="26.826" transform="rotate(-7.359 148.556 113.275)" fill="#5DD1AE"/><path d="m158.982 99.758-23.945 3.093 3.092 23.944 23.945-3.092-3.092-23.945Z" fill="#fff" fill-opacity=".01"/><path d="m157.195 105.568-11.357 14.652-6.685-5.13" stroke="#fff" stroke-width="2.742" stroke-linecap="round" stroke-linejoin="round"/><path fill-rule="evenodd" clip-rule="evenodd" d="m126.503 149.867-5.684 32.756c-.215 1.241-1.728 1.738-2.637.867l-9.61-9.2-25.004 26.117c-.6.627-1.596.649-2.224.048l-5.3-5.075a1.572 1.572 0 0 1-.049-2.223L101 167.04l-9.611-9.201c-.91-.871-.478-2.404.751-2.673l32.478-7.104a1.573 1.573 0 0 1 1.886 1.805Z" fill="#FF3175"/></svg>