<svg viewBox="0 0 400 300" fill="none" xmlns="http://www.w3.org/2000/svg"><path d="M208.721 49.304a4.191 4.191 0 0 1 5.386-2.472l88.132 32.675a4.19 4.19 0 0 1 2.473 5.386l-32.675 88.133a4.192 4.192 0 0 1-5.386 2.472l-88.133-32.675a4.191 4.191 0 0 1-2.472-5.386l32.675-88.133Z" fill="#25F4EE"/><path d="M93.883 95.16a4.19 4.19 0 0 1 2.963-5.131l68.344-18.313a4.189 4.189 0 0 1 5.131 2.963l18.313 68.344a4.19 4.19 0 0 1-2.963 5.131l-68.343 18.313a4.19 4.19 0 0 1-5.132-2.963L93.883 95.161Z" fill="#E5E5E5"/><path d="M145.328 161.609a4.19 4.19 0 0 1 4.743-3.552l76.537 10.996a4.191 4.191 0 0 1 3.551 4.744l-10.996 76.536a4.19 4.19 0 0 1-4.743 3.552l-76.537-10.997a4.19 4.19 0 0 1-3.551-4.743l10.996-76.536Z" fill="#FE5274"/><path d="M232.042 188.295a4.19 4.19 0 0 1 3.211-4.98l47.681-10.302a4.19 4.19 0 0 1 4.981 3.211l10.302 47.681a4.191 4.191 0 0 1-3.211 4.981l-47.682 10.301a4.19 4.19 0 0 1-4.98-3.21l-10.302-47.682Z" fill="#E5E5E5"/><path d="m147.357 198.476-5.181-54.301 122.297-46.544-117.116 100.845Z" fill="#2450F5"/><path d="m289.792 86.84-62.944 125.385c-.799 1.569-2.129 2.577-3.94 3.022a5.718 5.718 0 0 1-2.862-.13c-.628-.195-1.27-.559-1.913-1.073l-30.883-25.591a4.99 4.99 0 0 0-5.939-.309l-25.483 16.929c-1.444 1.005-3.051 1.216-4.801.673-.733-.228-1.323-.544-1.792-.937-.95-.742-1.616-1.659-1.975-2.828-.363-1.154-.384-2.3-.023-3.46l8.26-26.578a10.185 10.185 0 0 1 4.05-5.433l99.152-66.218-114.64 50.617c-.871.373-1.879.242-2.594-.36l-28.226-23.427c-1.861-1.454-2.525-3.379-1.935-5.806.592-2.327 2.033-3.746 4.319-4.242l167.813-38.437a5.368 5.368 0 0 1 2.976.082 5.57 5.57 0 0 1 2.796 1.926c1.478 1.947 1.635 4.028.584 6.196Z" fill="#386CF4"/><path d="m159.582 166.742 27.537 21.811c.056.042.112.086.167.132l-.167-.132a4.992 4.992 0 0 0-5.773-.177l-25.482 16.929c-1.444 1.005-3.051 1.216-4.801.672-.733-.227-1.324-.543-1.792-.936-.95-.742-1.616-1.659-1.975-2.828-.363-1.154-.384-2.3-.023-3.46l8.259-26.578a10.19 10.19 0 0 1 4.05-5.433Z" fill="#0E3AC4"/><path d="m205.655 69.736-4.705-1.442c-.172-.034-.275-.172-.343-.344l-1.443-4.705c-.137-.48-.824-.48-.962 0l-1.442 4.705c-.034.172-.172.275-.344.344l-4.705 1.442c-.481.138-.481.825 0 .962l4.705 1.443c.172.034.275.171.344.343l1.442 4.705c.138.481.825.481.962 0l1.443-4.705c.034-.172.171-.275.343-.343l4.705-1.443c.481-.137.481-.824 0-.962Z" fill="#386CF4"/><path d="m276.5 200.985-9.746-2.988c-.356-.071-.569-.356-.712-.712l-2.988-9.746c-.284-.996-1.707-.996-1.992 0l-2.988 9.746c-.071.356-.356.57-.711.712l-9.747 2.988c-.996.284-.996 1.707 0 1.992l9.747 2.988c.355.071.569.356.711.711l2.988 9.747c.285.996 1.708.996 1.992 0l2.988-9.747c.071-.355.356-.569.712-.711l9.746-2.988c.996-.285.996-1.708 0-1.992Z" fill="#fff"/><path d="m122.483 201.851-7.267.707c-.255.051-.474-.078-.666-.275l-4.658-5.621c-.462-.58-1.403-.189-1.317.548l.707 7.266c.051.255-.079.475-.275.667l-5.622 4.658c-.58.462-.188 1.403.549 1.317l7.266-.707c.255-.051.474.078.666.274l4.658 5.622c.463.58 1.403.189 1.317-.548l-.706-7.267c-.051-.254.078-.474.274-.666l5.622-4.658c.58-.462.188-1.403-.548-1.317Z" fill="#386CF4"/><path d="m162.784 226.743-3.697-1.133c-.135-.027-.216-.135-.27-.27l-1.133-3.697c-.108-.378-.648-.378-.755 0l-1.134 3.697c-.027.135-.135.216-.27.27l-3.697 1.133c-.378.108-.378.648 0 .756l3.697 1.133c.135.027.216.135.27.27l1.134 3.697c.107.378.647.378.755 0l1.133-3.697c.027-.135.135-.216.27-.27l3.697-1.133c.378-.108.378-.648 0-.756Z" fill="#fff"/></svg>