<svg viewBox="0 0 400 300" fill="none" xmlns="http://www.w3.org/2000/svg"><path d="m241.598 146.615-79.485-.957a16.486 16.486 0 0 0-15.599 10.622l-23.506 61.784c-2.829 7.436 3.046 15.27 10.972 14.631l129.409-10.419c6.945-.559 11.576-7.434 9.481-14.074l-15.816-50.118a16.406 16.406 0 0 0-15.456-11.469Z" fill="#3955F6"/><path d="m213.406 113.01.236 33.096c.02 2.765-.768 5.27-2.273 7.425-2.299 3.767-6.575 6.215-11.406 6.258-4.741.043-8.962-2.328-11.494-6.052-1.357-2.129-2.269-4.619-2.289-7.384l-.236-33.096 27.462-.247Z" fill="#FE5274"/><ellipse rx="32.13" ry="31.194" transform="matrix(.99536 -.09795 .09604 .9952 199.616 107.048)" fill="#FE5274"/><path d="M178.605 107.704c.037 5.264-3.688 9.669-8.598 10.696-1.456-3.555-2.198-7.474-2.227-11.578-.023-3.39.49-6.696 1.453-9.738 5.28.754 9.335 5.267 9.372 10.62Z" fill="#FE5274"/><path d="M169.996 118.397c-.714.096-1.429.192-2.144.198-.089.001-.179.002-.269-.086-.446.093-.894.008-1.341-.077-5.19-.755-9.154-5.179-9.19-10.622-.037-5.444 3.955-9.943 9.224-10.795.446-.094 1.072-.1 1.519-.104h.089c.447-.005.895.08 1.342.076l.178-.002.001.09a6.532 6.532 0 0 0-.349 1.252c-.175.626-.439 1.254-.434 1.878-.35 1.253-.519 2.682-.599 4.021-.084.804-.078 1.697-.072 2.5-.151 4.195.591 8.115 2.045 11.671Z" fill="#FE5274"/><path opacity=".6" d="M170.004 118.395c-.713.096-1.426.192-2.14.198-.089.001-.178.002-.268-.087a30.664 30.664 0 0 1-1.22-8.373c-.032-4.548.741-8.658 2.146-11.881.176-.448.351-.806.527-1.165l.179-.001v.089a6.666 6.666 0 0 0-.348 1.252c-.174.626-.437 1.252-.432 1.877-.348 1.251-.517 2.68-.596 4.019-.084.803-.077 1.695-.072 2.498.029 4.102.771 8.02 2.224 11.574Z" fill="#000"/><path d="M242.364 107.161c.037 5.443-3.955 9.943-9.045 10.793-.447.094-.893.187-1.34.102-.089.09-.179.091-.268.092-.715.007-1.52-.075-2.147-.158 0-.09.089-.09.089-.09.262-.895.614-1.791.876-2.686s.524-1.879.696-2.862a33.861 33.861 0 0 0 .199-10.264c-.093-.445-.095-.802-.187-1.159-.094-.713-.278-1.425-.462-2.137-.001-.178-.091-.356-.182-.534a6.507 6.507 0 0 0-.366-1.245c-.001-.179-.091-.267-.092-.446l.178-.001c.447-.094.894-.098 1.341-.102l.089-.001c.805-.008 1.52.075 2.326.246 4.656 1.027 8.26 5.277 8.295 10.452Z" fill="#FE5274"/><path opacity=".6" d="M232.985 109.566a30.71 30.71 0 0 1-1.1 8.394c-.089.09-.178.09-.267.091-.714.007-1.518-.075-2.143-.159-.001-.089.088-.09.088-.09.262-.894.612-1.789.874-2.684.261-.894.522-1.877.693-2.86a33.82 33.82 0 0 0 .195-10.259c-.093-.445-.095-.802-.187-1.157-.094-.713-.278-1.425-.461-2.137-.002-.178-.092-.356-.183-.533a6.573 6.573 0 0 0-.365-1.246c-.002-.178-.092-.267-.093-.445l.179-.001c.27.443.453.977.724 1.51 1.273 3.288 2.015 7.206 2.046 11.576Z" fill="#000"/><path d="M199.446 80.162c9.808-.089 17.703-8.089 17.634-17.87-.07-9.78-8.077-17.636-17.886-17.548-9.808.089-17.703 8.09-17.633 17.87.069 9.78 8.077 17.637 17.885 17.548Z" fill="#000340"/><path d="M230.388 98.173c-2.411.915-5.004 1.385-7.689 1.409-11.1.1-20.557-7.763-22.78-18.191-2.074 10.466-11.327 18.497-22.427 18.597-.806.007-1.612-.075-2.418-.068-2.15-.248-4.213-.766-6.188-1.462.087-.448.173-.895.349-1.254v-.089c4.116-12.806 16.045-22.2 30.189-22.328h.089c.269-.003.448-.005.717.082 13.43.148 24.951 8.795 29.334 20.811.092.267.184.624.275.89.091.179.092.268.093.447.091.177.182.444.184.623.18.177.181.356.272.533Z" fill="#000340"/><path d="M142.204 116.608c5.685-.701 9.728-5.904 9.031-11.621-.698-5.717-5.872-9.783-11.557-9.081-5.685.701-9.729 5.904-9.031 11.621.698 5.717 5.872 9.783 11.557 9.081Z" fill="#E5E5E5"/><path d="M254.049 78.214c4.046 0 7.33-3.298 7.336-7.366.005-4.068-3.27-7.366-7.317-7.366-4.046 0-7.33 3.298-7.336 7.366-.005 4.068 3.27 7.366 7.317 7.366Z" fill="#EBEBEB"/><path d="M278.449 84.688c-1.639-1.096-2.135-3.386-.993-5.079l16.585-24.895c1.093-1.643 3.377-2.14 5.065-.995 1.639 1.095 2.135 3.385.993 5.078l-16.585 24.895c-1.142 1.643-3.426 2.091-5.065.996ZM105.933 121.026a2.176 2.176 0 0 1 2.95-.837l15.515 8.565a2.163 2.163 0 0 1 .837 2.942 2.175 2.175 0 0 1-2.949.836l-15.515-8.565c-1.026-.593-1.404-1.92-.838-2.941Z" fill="#2450F5"/><path d="M273.481 129.933c-7.705-3.415-11.203-12.464-7.807-20.212.761-1.708 2.738-2.498 4.436-1.733 1.698.764 2.484 2.752 1.724 4.46-1.901 4.308.05 9.38 4.359 11.266 4.284 1.912 9.328-.051 11.204-4.384.76-1.708 2.738-2.498 4.436-1.733 1.698.764 2.484 2.753 1.723 4.46-3.345 7.749-12.369 11.292-20.075 7.876Z" fill="#25F4EE"/><path d="M136.16 53.939c10.353-3.39 22.096 2.629 26.234 13.385.899 2.39-.211 4.927-2.477 5.692-2.29.733-4.879-.592-5.807-2.96-2.313-5.998-8.877-9.365-14.621-7.466-5.743 1.9-8.566 8.332-6.253 14.33.899 2.39-.212 4.928-2.477 5.692-2.291.734-4.88-.592-5.807-2.959-4.164-10.786.908-22.317 11.208-25.714Z" fill="#FE5274"/><path d="M103.733 99.022c3.822-.471 6.539-3.969 6.07-7.812-.468-3.843-3.947-6.576-7.768-6.104-3.822.472-6.54 3.969-6.07 7.812.468 3.843 3.946 6.576 7.768 6.104Z" fill="#F6B370"/><rect x="113.557" y="144.256" width="170.248" height="106.122" rx="6.23" transform="rotate(-2.491 113.557 144.256)" fill="#25F4EE"/><path d="m114.344 162.646 170.095-7.401 1.044 24.001-170.095 7.401-1.044-24.001ZM132.113 223.056a3.154 3.154 0 0 1 3.015-3.289l24.178-1.052a3.155 3.155 0 0 1 3.289 3.014l.408 9.374a3.155 3.155 0 0 1-3.015 3.289l-24.178 1.052a3.154 3.154 0 0 1-3.289-3.014l-.408-9.374Z" fill="#B2F9F4"/><path d="m298.78 216.14-.03.245a6.9 6.9 0 0 1-7.71 6.005l-7.348-.914a6.898 6.898 0 0 1-6.004-7.71l.03-.245a6.9 6.9 0 0 1 7.71-6.005l7.347.914a6.898 6.898 0 0 1 6.005 7.71Z" fill="#FE5274"/><path d="m300.517 202.182-.031.245a6.898 6.898 0 0 1-7.71 6.004l-7.347-.913a6.9 6.9 0 0 1-6.005-7.71l.03-.245a6.9 6.9 0 0 1 7.711-6.005l7.347.913a6.9 6.9 0 0 1 6.005 7.711Z" fill="#FE5274"/><path d="m302.252 188.222-.031.245a6.898 6.898 0 0 1-7.71 6.004l-7.347-.913a6.9 6.9 0 0 1-6.005-7.71l.031-.245a6.9 6.9 0 0 1 7.71-6.005l7.347.914a6.9 6.9 0 0 1 6.005 7.71Z" fill="#FE5274"/><path d="M294.738 208.617a1.238 1.238 0 0 1-1.377 1.072l-8.09-.944a1.237 1.237 0 0 1-1.072-1.377 1.238 1.238 0 0 1 1.377-1.072l8.09.944a1.238 1.238 0 0 1 1.072 1.377ZM296.476 194.654a1.238 1.238 0 0 1-1.377 1.073l-8.089-.944a1.238 1.238 0 0 1-1.073-1.377 1.238 1.238 0 0 1 1.377-1.072l8.09.943a1.238 1.238 0 0 1 1.072 1.377Z" fill="#000"/><path d="m125.576 191.576.038.244a6.9 6.9 0 0 1-5.779 7.881l-7.318 1.127a6.9 6.9 0 0 1-7.881-5.779l-.037-.244a6.898 6.898 0 0 1 5.778-7.881l7.318-1.126a6.899 6.899 0 0 1 7.881 5.778Z" fill="#FE5274"/><path d="m123.435 177.672.038.244a6.899 6.899 0 0 1-5.779 7.881l-7.317 1.127a6.899 6.899 0 0 1-7.881-5.779l-.038-.244a6.899 6.899 0 0 1 5.779-7.881l7.317-1.126a6.898 6.898 0 0 1 7.881 5.778Z" fill="#FE5274"/><path d="m121.295 163.773.037.244a6.899 6.899 0 0 1-5.778 7.881l-7.318 1.126a6.899 6.899 0 0 1-7.881-5.779l-.038-.244a6.9 6.9 0 0 1 5.779-7.881l7.318-1.126a6.9 6.9 0 0 1 7.881 5.779Z" fill="#FE5274"/><path d="M119.636 185.44a1.238 1.238 0 0 1-1.032 1.408l-8.04 1.299a1.237 1.237 0 0 1-1.407-1.031 1.239 1.239 0 0 1 1.032-1.408l8.04-1.3a1.237 1.237 0 0 1 1.407 1.032ZM117.495 171.534a1.238 1.238 0 0 1-1.032 1.408l-8.04 1.3a1.239 1.239 0 0 1-1.408-1.032 1.24 1.24 0 0 1 1.032-1.408l8.04-1.299a1.238 1.238 0 0 1 1.408 1.031ZM194.076 128.679a9.967 9.967 0 0 1-2.274-2.088c-3.906-5.047-2.44-13.278-2.397-13.638.173-1.051 1.178-1.682 2.188-1.532 1.056.181 1.696 1.187 1.552 2.193.015.075-1.188 6.924 1.654 10.619 1.063 1.352 2.59 2.103 4.579 2.254 1.989.15 3.538-.315 4.63-1.472 2.558-2.583 2.58-8.14 2.417-10.063-.098-1.036.649-1.967 1.688-2.057 1.039-.09 1.978.661 2.075 1.697.033.346.857 8.667-3.436 13.082-1.945 1.953-4.5 2.853-7.65 2.583a9.407 9.407 0 0 1-5.026-1.578Z" fill="#000"/><path d="M203.018 253.331c26.331 0 47.676-21.346 47.676-47.677s-21.345-47.677-47.676-47.677c-26.332 0-47.677 21.346-47.677 47.677s21.345 47.677 47.677 47.677Z" fill="#3955F6"/><rect x="172.991" y="208.781" width="14.303" height="30.686" rx="1.907" transform="rotate(-45 172.991 208.781)" fill="#fff"/><rect x="226.612" y="178.747" width="14.303" height="58.752" rx="1.907" transform="rotate(45 226.612 178.747)" fill="#fff"/></svg>