<svg viewBox="0 0 400 300" fill="none" xmlns="http://www.w3.org/2000/svg"><path d="M251.472 138.001h-91.887c-20.248 0-36.663 16.415-36.663 36.664v34.067h165.214v-34.067c0-20.249-16.415-36.664-36.664-36.664Z" fill="#2450F5"/><path d="m218.159 104.093.352 33.975c.03 2.839-.768 5.411-2.302 7.625-2.341 3.871-6.711 6.389-11.656 6.441-4.854.05-9.183-2.378-11.787-6.197-1.397-2.184-2.339-4.739-2.369-7.578l-.352-33.974 28.114-.292Z" fill="#7DB5FF"/><path d="M174.388 86.54c6.908 2.199 14.292-1.62 16.492-8.53 2.2-6.911-1.616-14.296-8.524-16.496-6.908-2.199-14.292 1.62-16.492 8.53-2.2 6.911 1.616 14.296 8.524 16.495Z" fill="#000340"/><path d="M177.159 63.229a6.15 6.15 0 0 0 7.724-3.995 6.15 6.15 0 1 0-11.717-3.73 6.15 6.15 0 0 0 3.993 7.725ZM225.945 89.464c6.909 2.2 14.292-1.62 16.493-8.53 2.2-6.91-1.617-14.296-8.525-16.495-6.908-2.2-14.292 1.62-16.492 8.53-2.2 6.91 1.616 14.296 8.524 16.495Z" fill="#000340"/><path d="M190.019 71.22c6.908 2.2 14.291-1.619 16.492-8.53 2.2-6.91-1.617-14.294-8.525-16.494-6.908-2.2-14.292 1.62-16.492 8.53-2.2 6.91 1.616 14.296 8.525 16.495ZM228.378 67.036a6.15 6.15 0 0 0 7.724-3.995 6.149 6.149 0 1 0-11.717-3.73 6.15 6.15 0 0 0 3.993 7.725Z" fill="#000340"/><path d="M202.163 121.742c17.668 1.2 32.828-11.441 33.862-28.236 1.033-16.795-12.451-31.383-30.118-32.583-17.668-1.2-32.828 11.441-33.862 28.236-1.033 16.795 12.451 31.383 30.118 32.583Z" fill="#7DB5FF"/><path d="M165.413 97.838c3.561 2.303 8.3 1.306 10.586-2.229 2.286-3.534 1.253-8.265-2.308-10.568-3.56-2.303-8.3-1.305-10.586 2.229-2.285 3.534-1.252 8.266 2.308 10.569Z" fill="#7DB5FF"/><path d="M173.965 103.032c-.118-.076-.177-.114-.258-.249-3.272-6.614-2.331-14.165-2.298-14.476.072-.37.418-.646.79-.572.371.074.65.42.579.79-.038.06-.904 7.493 2.225 13.68.182.368.014.758-.354.937-.194.041-.507.005-.684-.11Z" fill="#000"/><path d="M234.383 101.062c3.561 2.303 8.3 1.305 10.586-2.23 2.286-3.533 1.252-8.265-2.308-10.568-3.561-2.303-8.3-1.305-10.586 2.229-2.286 3.534-1.252 8.266 2.308 10.569Z" fill="#7DB5FF"/><path d="M232.452 105.731a.704.704 0 0 1-.211-.97c3.581-5.927 3.277-13.368 3.256-13.465-.026-.35.299-.722.649-.745.351-.023.727.303.753.653.025.35.372 7.985-3.497 14.225-.109.429-.595.531-.95.302.06.038.06.038 0 0Z" fill="#000"/><path d="M208.824 71.494c8.44 2.867 17.607-1.653 20.475-10.096 2.868-8.443-1.649-17.612-10.089-20.479-8.44-2.867-17.607 1.653-20.475 10.096-2.868 8.443 1.649 17.611 10.089 20.479Z" fill="#000340"/><path d="M191.01 70.21a7.56 7.56 0 0 0 9.589-4.728 7.56 7.56 0 1 0-14.314-4.863 7.56 7.56 0 0 0 4.725 9.591ZM227.131 79.71a8.29 8.29 0 0 0 10.516-5.186 8.29 8.29 0 1 0-15.698-5.333 8.291 8.291 0 0 0 5.182 10.518Z" fill="#000340"/><path d="M232.414 87.387a4.787 4.787 0 0 0 6.072-2.994 4.787 4.787 0 1 0-9.064-3.08 4.787 4.787 0 0 0 2.992 6.074ZM181.63 81.353a8.799 8.799 0 0 0 11.161-5.503 8.8 8.8 0 1 0-16.661-5.66c-1.563 4.603.899 9.6 5.5 11.163Z" fill="#000340"/><path d="M175.171 86.488a5.859 5.859 0 0 0 3.769-11.096 5.858 5.858 0 0 0-7.43 3.664 5.858 5.858 0 0 0 3.661 7.432Z" fill="#000340"/><path d="M85.667 152.526a9.04 9.04 0 0 1 6.66-10.915l72.41-17.537a1.025 1.025 0 0 1 1.164 1.442l-9.175 18.944c-.218.451-.078.994.33 1.283l21.425 15.179c.396.281.541.801.346 1.246l-7.524 17.215c-.153.35-.099.755.14 1.053l11.225 13.96c.248.308.296.732.123 1.089l-9.148 18.89c-.214.441-.085.972.306 1.266l16.845 12.662c.692.521.467 1.612-.374 1.815l-72.412 17.537a9.041 9.041 0 0 1-10.915-6.659l-21.426-88.47Z" fill="#25F4EE"/><path d="m156.261 144.881-68.469 16.42 5.186 21.414 85.886-21.448-22.603-16.386Z" fill="#fff" fill-opacity=".7"/><path d="M294.327 259.832a9.041 9.041 0 0 1-10.901 6.683l-72.618-17.418a1.029 1.029 0 0 1-.747-.717l-4.718-16.6a1.022 1.022 0 0 1 .171-.9l12.863-16.909c.218-.285.27-.664.138-.997l-6.808-17.221a1.024 1.024 0 0 1 .424-1.254l19.791-11.951c.499-.301.647-.957.325-1.443l-16.175-24.407a1.023 1.023 0 0 1 .263-1.403l19.311-13.63c.241-.17.543-.228.83-.159l72.75 17.45c4.855 1.164 7.847 6.045 6.683 10.9l-21.582 89.976Z" fill="#25F4EE"/><path d="m232.946 181.706 75.783 18.104 5.008-20.88-98.14-23.313 16.729 25.652c.143.219.365.376.62.437Z" fill="#fff" fill-opacity=".7"/><path d="m306.707 239.125-.078.235a6.915 6.915 0 0 1-8.749 4.408l-7.049-2.326a6.915 6.915 0 0 1-4.408-8.749l.077-.235a6.918 6.918 0 0 1 8.75-4.409l7.049 2.326a6.916 6.916 0 0 1 4.408 8.75Z" fill="#7DB5FF"/><path d="m311.127 225.732-.078.235a6.915 6.915 0 0 1-8.749 4.408l-7.049-2.325a6.916 6.916 0 0 1-4.408-8.75l.077-.235a6.916 6.916 0 0 1 8.75-4.408l7.049 2.325a6.918 6.918 0 0 1 4.408 8.75Z" fill="#7DB5FF"/><path d="m315.545 212.343-.078.235a6.917 6.917 0 0 1-8.749 4.408l-7.049-2.326a6.917 6.917 0 0 1-4.409-8.749l.078-.235a6.918 6.918 0 0 1 8.75-4.409l7.048 2.326a6.918 6.918 0 0 1 4.409 8.75Z" fill="#7DB5FF"/><path d="M304.194 230.938a1.24 1.24 0 0 1-1.562.787l-7.774-2.499a1.24 1.24 0 0 1-.787-1.562 1.24 1.24 0 0 1 1.563-.788l7.773 2.5c.646.213 1 .916.787 1.562ZM308.613 217.544c-.213.646-.916 1-1.563.787l-7.773-2.5a1.24 1.24 0 0 1-.787-1.562c.213-.646.916-1 1.563-.787l7.773 2.499c.646.214 1 .917.787 1.563Z" fill="#000"/><path d="m113.99 213.77.075.245a7.156 7.156 0 0 1-4.734 8.964l-7.339 2.266a7.156 7.156 0 0 1-8.964-4.735l-.076-.244a7.156 7.156 0 0 1 4.735-8.964l7.338-2.266a7.157 7.157 0 0 1 8.965 4.734Z" fill="#7DB5FF"/><path d="m109.683 199.828.075.244a7.157 7.157 0 0 1-4.734 8.965l-7.339 2.265a7.156 7.156 0 0 1-8.964-4.734l-.075-.245a7.157 7.157 0 0 1 4.734-8.964l7.339-2.266a7.157 7.157 0 0 1 8.964 4.735Z" fill="#7DB5FF"/><path d="m105.379 185.885.076.244a7.156 7.156 0 0 1-4.735 8.964l-7.338 2.266a7.157 7.157 0 0 1-8.965-4.734l-.075-.245a7.157 7.157 0 0 1 4.734-8.964l7.34-2.266a7.156 7.156 0 0 1 8.963 4.735Z" fill="#7DB5FF"/><path d="M106.963 208.372a1.284 1.284 0 0 1-.846 1.601l-8.053 2.553a1.283 1.283 0 0 1-1.6-.845 1.284 1.284 0 0 1 .845-1.601l8.053-2.553a1.283 1.283 0 0 1 1.601.845ZM102.656 194.429a1.283 1.283 0 0 1-.845 1.601l-8.054 2.553a1.283 1.283 0 0 1-1.6-.845 1.284 1.284 0 0 1 .845-1.601l8.054-2.553a1.282 1.282 0 0 1 1.6.845ZM194.441 101.4a1.873 1.873 0 1 0-.712 3.677l.712-3.677Zm20.234 7.729a1.873 1.873 0 1 0 .711-3.678l-.711 3.678Zm-20.946-4.052 20.946 4.052.711-3.678-20.945-4.051-.712 3.677Z" fill="#000"/><path d="M204.857 262.837c28.4 0 51.421-23.022 51.421-51.421s-23.021-51.421-51.421-51.421c-28.399 0-51.42 23.022-51.42 51.421s23.021 51.421 51.42 51.421Z" fill="#FE5274"/><rect x="177.386" y="194.276" width="15.426" height="63.366" rx="2.057" transform="rotate(-45 177.386 194.276)" fill="#fff"/><rect x="222.466" y="183.305" width="15.426" height="63.366" rx="2.057" transform="rotate(45 222.466 183.305)" fill="#fff"/></svg>