<svg viewBox="0 0 400 300" fill="none" xmlns="http://www.w3.org/2000/svg"><g clip-path="url(#a)"><path d="m191.352 123.582-66.646 23.209a14.635 14.635 0 0 0-9.814 13.579l-.963 58.678c-.116 7.063 7.155 11.828 13.579 8.901l104.888-47.784c5.629-2.565 7.419-9.703 3.664-14.613l-28.341-37.064a14.565 14.565 0 0 0-16.367-4.906Z" fill="#3955F6"/><path d="m134.88 143.214-17.377 8.964c-6.792 3.93-4.682 3.006-8.436 9.934-3.754 6.929-5.071 19.36-6.914 29.962l-4.636 28.123a37.266 37.266 0 0 0 5.713 18.158c3.447 5.464 6.759 9.954 11.829 11.797 5.07 1.844 9.219-.461 9.219-.461l27.184-12.308c6.243-2.736 6.484-11.572.408-14.816l-15.542-6.91 1.436-43.465 7.628-5.641-10.512-23.337Z" fill="#7DB5FF"/><path d="M114.925 187.061c7.431-1.148 14.92-1.931 22.424-2.431l.411-12.437 7.63-5.642-10.511-23.337-12.906 4.609c-6.7 3.881-9.524 5.588-12.907 13.368-3.75 6.809-5.07 20.742-6.453 28.117 4.61-.922 6.713-1.383 12.312-2.247Z" fill="#3955F6"/><path d="m137.446 183.497.2-6.633" stroke="#000" stroke-width="2.577" stroke-miterlimit="10" stroke-linecap="round"/><path d="m159.21 101.66 9.945 27.649c.831 2.31.909 4.64.283 6.888-.816 3.832-3.677 7.142-7.71 8.601-3.958 1.432-8.192.689-11.409-1.684-1.763-1.383-3.26-3.2-4.091-5.51l-9.945-27.649 22.927-8.295Z" fill="#7DB5FF"/><ellipse rx="28.525" ry="27.694" transform="matrix(.9065 -.42259 .42074 .907 145.656 100.642)" fill="#7DB5FF"/><path d="M142.867 112.665a1.382 1.382 0 1 0 .618 2.695l-.618-2.695Zm15.973-.826a1.382 1.382 0 1 0-.619-2.695l.619 2.695Zm-15.355 3.521 15.355-3.521-.619-2.695-15.354 3.521.618 2.695Z" fill="#000"/><path d="M128.503 107.462a9.644 9.644 0 0 1-4.051 11.491c-2.266-2.549-4.042-5.613-5.275-9.041a28.125 28.125 0 0 1-1.651-8.584c4.644-.923 9.369 1.662 10.977 6.134Z" fill="#7DB5FF"/><path d="M124.446 118.953c-.57.291-1.14.581-1.737.798-.074.027-.149.054-.25.006-.347.21-.747.27-1.147.331-4.569.897-9.191-1.642-10.825-6.19-1.634-4.548.385-9.492 4.546-11.758.347-.209.869-.398 1.242-.534l.075-.027c.373-.135.773-.195 1.146-.33l.149-.055.027.075c-.015.427.017.752.076 1.152.039.576.002 1.179.19 1.701.076 1.152.356 2.399.683 3.544.166.698.434 1.444.675 2.115 1.11 3.558 2.885 6.622 5.15 9.172ZM181.743 88.23c1.634 4.548-.385 9.492-4.397 11.703-.346.21-.693.42-1.093.48-.047.102-.122.129-.197.156-.597.216-1.295.385-1.844.5-.027-.075.048-.102.048-.102-.044-.827-.014-1.68-.058-2.507a23.568 23.568 0 0 0-.26-2.602 29.88 29.88 0 0 0-1.347-5.157 30.428 30.428 0 0 0-1.509-3.498c-.209-.346-.316-.644-.498-.915-.288-.57-.652-1.112-1.015-1.654-.054-.15-.182-.272-.31-.394a5.855 5.855 0 0 0-.674-.935c-.053-.15-.155-.197-.208-.346l.149-.054c.346-.21.719-.345 1.092-.48l.075-.027a9.162 9.162 0 0 1 2.02-.48c4.202-.51 8.473 1.988 10.026 6.312Z" fill="#7DB5FF"/><path d="M137.843 78.264c8.189-2.963 12.445-11.989 9.507-20.16-2.939-8.17-11.959-12.392-20.148-9.429-8.189 2.963-12.445 11.988-9.506 20.159 2.938 8.17 11.959 12.393 20.147 9.43Z" fill="#000340"/><path d="M169.057 84.232c-1.75 1.476-3.783 2.633-6.025 3.444-9.267 3.353-19.503-.448-24.436-8.526 1.346 9.376-4.039 18.827-13.306 22.18-.673.243-1.373.412-2.045.655-1.874.425-3.754.6-5.613.598-.06-.4-.119-.8-.077-1.153l-.027-.074c-.324-11.938 6.9-23.32 18.709-27.591l.074-.028c.225-.08.374-.135.625-.141 11.291-3.832 23.487.018 30.697 8.79.155.197.337.469.493.665.128.123.155.197.209.346.128.122.283.32.337.468.203.096.257.245.385.367Z" fill="#000340"/><circle cx="229.192" cy="178.173" r="61.443" fill="#fff"/><path d="M226.149 102.19c-41.75 0-75.594 33.844-75.594 75.594 0 41.751 33.844 75.595 75.594 75.595 41.751 0 75.595-33.844 75.595-75.595 0-41.75-33.844-75.594-75.595-75.594Zm48.771 65.688v2.112a4.724 4.724 0 0 1-2.612 4.225l-4.691 2.347a4.72 4.72 0 0 1-4.734-.296l-5.551-3.7a4.737 4.737 0 0 0-4.115-.552l-.808.268c-2.956.985-4.164 4.509-2.435 7.103l4.036 6.053a4.719 4.719 0 0 0 3.929 2.103h2.502a4.726 4.726 0 0 1 4.725 4.725v3.457a4.729 4.729 0 0 1-.945 2.835l-5.712 7.614a4.744 4.744 0 0 0-.863 1.96l-1.311 6.959a4.733 4.733 0 0 1-1.451 2.609 48.66 48.66 0 0 0-7.62 8.889l-3.972 5.959a8.46 8.46 0 0 1-14.604-.909 24.05 24.05 0 0 1-2.539-10.757v-9.111a4.724 4.724 0 0 0-4.724-4.724h-7.889a16.661 16.661 0 0 1-11.775-4.877 16.663 16.663 0 0 1-4.877-11.775v-4.286a16.66 16.66 0 0 1 6.66-13.321l8.407-6.306a16.662 16.662 0 0 1 9.992-3.332h.271c2.585 0 5.136.601 7.447 1.759l4.487 2.243a4.716 4.716 0 0 0 3.606.256l14.421-4.807a4.723 4.723 0 0 0-1.494-9.205h-3.076a4.722 4.722 0 0 1-3.34-1.384l-2.11-2.109a4.723 4.723 0 0 0-3.341-1.384h-27.448a4.725 4.725 0 0 1-4.725-4.725v-1.341a4.726 4.726 0 0 1 3.579-4.584l4.404-1.101a4.727 4.727 0 0 0 2.786-1.963l2.463-3.691a4.72 4.72 0 0 1 3.929-2.103h7.38a4.725 4.725 0 0 0 4.724-4.725v-6.615c24.148 3.914 43.544 22.017 49.356 45.482h-5.617a4.725 4.725 0 0 0-4.725 4.725Z" fill="#25F4EE"/><path d="M147.948 218.241c-3.085-3.264-2.931-8.428.333-11.513l8.327-7.834c3.264-3.084 8.428-2.93 11.512.334 3.085 3.264 2.931 8.428-.333 11.513l-8.326 7.834c-3.265 3.084-8.429 2.93-11.513-.334Z" fill="#7DB5FF"/><path d="m146.035 209.881 8.557-9.052M160.656 218.204l8.594-9.044" stroke="#3B312F" stroke-width="4.031" stroke-miterlimit="10"/><path d="m113.248 245.497-4.931-7.254c-3.647-5.318-2.299-12.598 3.059-16.208l69.368-45.117c5.318-3.647.107 5.672 3.717 11.03l6.76 7.586c3.647 5.319 12.961 4.295 7.603 7.906l-69.367 45.116c-5.243 3.645-12.561 2.259-16.209-3.059Z" fill="#FE5274"/><path d="M170.85 188.224c.498 1.201 1.072 2.399 1.607 3.561l.04.037c.201.335.327.673.529 1.009 2.399 4.448 5.1 8.809 7.908 12.976 1.523 2.232 3.046 4.464 4.646 6.693l13.241-9.059c5.318-3.647-3.582-.336-7.229-5.654l-6.701-9.871c-3.647-5.318 1.167-14.643-4.151-10.996l-11.308 7.698c.461 1.24.92 2.405 1.418 3.606Z" fill="#0628A9" fill-opacity=".4" style="mix-blend-mode:darken"/><path fill-rule="evenodd" clip-rule="evenodd" d="M285.213 201.076c-24.285 26.016-65.062 27.417-91.078 3.132-26.015-24.286-27.417-65.063-3.131-91.078s65.063-27.417 91.078-3.132c26.015 24.286 27.417 65.063 3.131 91.078Zm-9.07-8.466c-19.609 21.005-52.534 22.137-73.539 2.528-21.005-19.609-22.137-52.533-2.528-73.538 19.609-21.005 52.533-22.137 73.538-2.529 21.005 19.609 22.137 52.534 2.529 73.539Z" fill="#FE5274"/><path d="M117.472 234.427c-7.318-9.411 2.205-37.522 28.56-26.898l21.852 11.759c5.694 2.613 2.275 8.418-3.319 11.244l-25.532 17.021-9.014-4.76c-5.316-2.443-9.165-3.592-12.547-8.366Z" fill="#7DB5FF"/><path d="M146.887 247.004a8.105 8.105 0 0 1-8.178.41l-17.21-8.935a8.127 8.127 0 0 1 7.496-14.419l17.209 8.935a8.12 8.12 0 0 1 3.491 10.892 8.128 8.128 0 0 1-2.792 3.113l-.016.004Z" fill="#7DB5FF"/><path d="M156.614 240.66a8.118 8.118 0 0 1-8.18.411l-17.209-8.934a8.122 8.122 0 0 1-3.464-10.949 8.13 8.13 0 0 1 4.757-3.999 8.112 8.112 0 0 1 6.191.536l17.21 8.934a8.125 8.125 0 0 1 3.493 10.891 8.115 8.115 0 0 1-2.793 3.113l-.005-.003Z" fill="#7DB5FF"/><path d="M169.32 233.587a8.105 8.105 0 0 1-8.178.41l-17.21-8.934a8.122 8.122 0 0 1 7.48-14.415l17.209 8.934a8.13 8.13 0 0 1 3.091 2.819 8.13 8.13 0 0 1 .402 8.074 8.122 8.122 0 0 1-2.794 3.112Z" fill="#7DB5FF"/><path d="m161.135 233.99-12.667-6.583M150.952 242.188l-12.666-6.581" stroke="#000" stroke-width="2.577" stroke-miterlimit="10" stroke-linecap="round"/><path d="m116.344 226.553-4.879 6.031 4.879-6.031Z" fill="#7DB5FF"/><path d="M138.448 205.157c-5.778-1.24-18.182-.776-21.572 11.008" stroke="#000" stroke-width="1.844" stroke-linecap="round"/><path fill-rule="evenodd" clip-rule="evenodd" d="M206.57 46.984a5.466 5.466 0 0 0-6.308 4.46l-6.863 36.213a2.57 2.57 0 0 0 4.016 2.532l11.284-7.085 22.196 3.847a5.465 5.465 0 0 0 6.308-4.46l4.192-23.953a5.457 5.457 0 0 0-4.456-6.306l-30.369-5.248Zm12.843 13.4c-1.127-.297-2.363.109-3.486 1.408-.373.432-1.007.574-1.485.261l-2.887-1.888c-.479-.313-.616-.957-.266-1.409 2.029-2.614 5.37-4.806 9.526-3.712a8.324 8.324 0 0 1 5.929 10.164c-.68 2.59-2.82 4.311-4.808 5.235-1.722.8-3.817 1.24-5.793.985-.567-.073-.898-.646-.752-1.198l.876-3.338c.145-.552.72-.888 1.29-.922a5.792 5.792 0 0 0 2.053-.534c1.198-.557 1.698-1.253 1.797-1.633a2.8 2.8 0 0 0-1.994-3.42Zm-6.226 14.38c.424-1.61 2.023-2.397 3.563-1.991 1.574.414 2.611 1.897 2.187 3.505-.423 1.61-2.065 2.424-3.639 2.009-1.54-.406-2.535-1.914-2.111-3.523Z" fill="#E5E5E5"/></g><defs><clipPath id="a"><path fill="#fff" d="M0 0h400v300H0z"/></clipPath></defs></svg>