<svg viewBox="0 0 400 300" fill="none" xmlns="http://www.w3.org/2000/svg"><path d="M221.246 156.806h-76.959c-19.316 0-34.975 15.659-34.975 34.976v30.933a3.497 3.497 0 0 0 3.497 3.497h139.915a3.498 3.498 0 0 0 3.498-3.497v-30.933c0-19.317-15.659-34.976-34.976-34.976Z" fill="#2450F5"/><path d="m205.818 127.456-5.711 32.329c-.477 2.702-1.693 5.003-3.543 6.833-2.913 3.26-7.511 4.874-12.217 4.042-4.618-.815-8.298-3.892-10.092-7.983-.938-2.322-1.378-4.916-.901-7.618l5.711-32.329 26.753 4.726Z" fill="#7DB5FF"/><path fill-rule="evenodd" clip-rule="evenodd" d="M249.132 112.162c-9.232-9.435-23.612-12.668-42.07-6.565-6.146 2.031-13.13-.268-15.962-6.089l-17.09-35.135c-2.832-5.821-.425-12.887 5.605-15.24 34.918-13.626 80.134-15.516 114.176 19.275 36.38 37.179 35.74 96.839-1.43 133.254-21.658 21.218-52.467 25.525-77.167 22.953-21.387-2.227-44.302-10.131-62.033-24.096-5.085-4.005-4.973-11.487-.349-16.018l27.913-27.346c4.624-4.531 12.158-4.449 17.901-1.468 6.226 3.231 14.227 5.814 23.058 6.734 14.883 1.55 23.788-2.317 26.966-5.431 12.505-12.25 12.72-32.321.482-44.828Z" fill="#25F4EE"/><path d="M224.715 124.236c-.354 2.004-.867 3.89-1.626 5.643-.344.928-.759 1.753-1.19 2.666-.415.825-.831 1.65-1.318 2.373-.015.087-.102.072-.102.072a39.768 39.768 0 0 1-3.656 4.925c-7.029 7.745-17.718 11.787-28.698 9.848-10.893-1.924-19.478-9.282-23.546-18.807-.825-1.943-1.532-4.045-1.978-6.101l.015-.087-.292-1.399c-.491-3.322-.516-6.741.1-10.227.138-.784.292-1.656.518-2.425.225-.768.466-1.625.692-2.393.164-.421.241-.856.477-1.174.016-.087.031-.175.133-.246.016-.087.031-.175.149-.333.18-.508.446-1 .713-1.492l.031-.174c.164-.421.313-.754.548-1.072l.016-.087c6.297-11.737 19.575-18.737 33.343-16.305l.087.015c.262.046.436.077.682.21 13.097 2.673 22.671 13.081 24.791 25.497.026.364.067.641.179 1.02.057.19.041.277.01.451.072.103.057.19.026.364-.015.088.056.19.041.277-.015.087.072.103.072.103.056.189.025.364.082.553-.016.088.056.19.041.277l-.047.262c.067.64.103 1.456.067 2.168.025.364.045 1.52-.032 1.956-.036.712-.169.705-.205 1.417.139.743 0 1.528-.123 2.225Z" fill="#7DB5FF"/><path d="M191.869 148.949c17.472 1.187 32.465-11.315 33.487-27.924 1.023-16.609-12.313-31.036-29.785-32.223-17.472-1.187-32.465 11.315-33.487 27.924-1.023 16.609 12.313 31.036 29.785 32.223Z" fill="#7DB5FF"/><path d="M172.977 115.994c-.908 5.141-5.322 8.765-10.284 8.877-.779-3.732-.799-7.69-.091-11.698a31.44 31.44 0 0 1 3.16-9.237c5.003 1.693 8.139 6.83 7.215 12.058Z" fill="#7DB5FF"/><path d="M162.692 124.871c-.712-.036-1.425-.072-2.122-.195-.087-.015-.174-.031-.246-.133-.451.01-.872-.154-1.292-.318-4.916-1.678-7.98-6.712-7.041-12.028.939-5.315 5.63-8.98 10.91-8.856.451-.01 1.061.098 1.497.175l.087.015c.436.077.856.241 1.292.318l.174.031-.016.087a6.582 6.582 0 0 0-.564 1.159c-.282.579-.651 1.143-.759 1.753-.564 1.158-.984 2.521-1.302 3.813-.226.769-.38 1.64-.518 2.425-.898 4.065-.878 8.022-.1 11.754Z" fill="#7DB5FF"/><path opacity=".36" d="M162.69 124.872c-.712-.036-1.425-.072-2.122-.195-.087-.016-.174-.031-.246-.134a30.486 30.486 0 0 1 .314-8.391c.785-4.445 2.278-8.315 4.226-11.205.251-.405.487-.723.723-1.041l.174.031-.015.087c-.251.405-.4.738-.564 1.159-.282.579-.651 1.143-.759 1.753-.564 1.158-.985 2.521-1.303 3.813-.225.769-.379 1.64-.518 2.425-.708 4.008-.688 7.966.09 11.698Z" fill="#000"/><path d="M235.018 126.953c-.939 5.315-5.63 8.98-10.736 8.886-.451.011-.902.021-1.322-.143-.103.071-.19.056-.277.041-.697-.123-1.466-.349-2.061-.544.015-.087.103-.072.103-.072.415-.825.918-1.635 1.333-2.46.415-.825.846-1.738 1.19-2.666a33.607 33.607 0 0 0 2.031-9.975c-.01-.451.052-.799.026-1.163.036-.713-.015-1.441-.066-2.169.031-.174-.026-.364-.082-.553a6.538 6.538 0 0 0-.133-1.282c.031-.174-.041-.277-.01-.451l.174.031c.451-.01.887.067 1.323.143l.087.016c.784.138 1.466.349 2.219.662 4.347 1.846 7.094 6.644 6.201 11.699Z" fill="#7DB5FF"/><path opacity=".36" d="M225.471 127.601a30.504 30.504 0 0 1-2.58 7.992c-.103.071-.19.056-.277.041-.697-.123-1.466-.349-2.06-.544.015-.087.102-.072.102-.072.415-.825.918-1.635 1.333-2.46.416-.825.846-1.738 1.19-2.666a33.515 33.515 0 0 0 1.554-5.746c.247-1.394.406-2.804.478-4.229-.01-.451.051-.799.026-1.163.036-.713-.016-1.441-.067-2.169.031-.174-.025-.364-.082-.553a6.455 6.455 0 0 0-.133-1.282c.031-.174-.041-.277-.01-.451l.174.031c.185.482.267 1.035.436 1.604.65 3.44.67 7.397-.084 11.667Z" fill="#000"/><path d="M199.838 91.195c9.579 1.692 18.716-4.702 20.408-14.281 1.692-9.58-4.701-18.716-14.28-20.408-9.58-1.693-18.717 4.701-20.409 14.28-1.692 9.58 4.702 18.716 14.281 20.409Z" fill="#000340"/><path d="M225.005 116.015c-2.507.456-5.111.446-7.725-.016-10.806-1.909-18.586-11.281-18.876-21.846-3.892 9.826-14.325 15.981-25.131 14.072-.784-.139-1.553-.364-2.337-.503-2.046-.631-3.957-1.508-5.751-2.544.164-.42.328-.84.564-1.158l.015-.087c6.297-11.738 19.575-18.738 33.344-16.306l.087.016c.261.046.435.077.681.21 13.026 2.57 22.671 13.081 24.776 25.584.041.277.066.641.107.918.057.189.041.276.01.451.057.189.098.466.067.64.144.206.113.38.169.569Z" fill="#000340"/><path d="m280.277 197.169.225-.173a7.934 7.934 0 0 1 11.146 1.447l5.196 6.747a7.935 7.935 0 0 1-1.448 11.146l-.224.173a7.935 7.935 0 0 1-11.147-1.447l-5.196-6.747a7.935 7.935 0 0 1 1.448-11.146Z" fill="#7DB5FF"/><path d="m267.457 207.043.224-.174a7.936 7.936 0 0 1 11.147 1.448l5.196 6.746a7.936 7.936 0 0 1-1.448 11.147l-.225.173a7.935 7.935 0 0 1-11.146-1.447l-5.196-6.747a7.935 7.935 0 0 1 1.448-11.146Z" fill="#7DB5FF"/><path d="m254.639 216.915.225-.173a7.935 7.935 0 0 1 11.146 1.448l5.196 6.746a7.935 7.935 0 0 1-1.447 11.147l-.225.173a7.935 7.935 0 0 1-11.146-1.448l-5.196-6.746a7.935 7.935 0 0 1 1.447-11.147Z" fill="#7DB5FF"/><path d="M277.386 206.561a1.423 1.423 0 0 1 1.99.259l5.772 7.378c.476.618.36 1.514-.259 1.99a1.423 1.423 0 0 1-1.99-.258l-5.772-7.378a1.424 1.424 0 0 1 .259-1.991ZM264.568 216.432a1.424 1.424 0 0 1 1.991.259l5.771 7.378c.477.618.36 1.514-.258 1.99a1.424 1.424 0 0 1-1.991-.258l-5.771-7.378a1.424 1.424 0 0 1 .258-1.991Z" fill="#000"/><path d="M105.058 215.777c13.479-13.189 33.594-11.547 46.208 1.345 12.897 13.18 14.359 33.615.893 46.791-13.466 13.177-34.155 11.555-47.052-1.625-12.614-12.892-13.515-33.335-.049-46.511Z" fill="#25F4EE"/><path d="m111.914 196.687.237-.156a7.935 7.935 0 0 1 11.013 2.247l4.696 7.103a7.935 7.935 0 0 1-2.247 11.013l-.237.157a7.935 7.935 0 0 1-11.013-2.247l-4.696-7.104a7.935 7.935 0 0 1 2.247-11.013Z" fill="#7DB5FF"/><path d="m98.418 205.608.237-.156a7.934 7.934 0 0 1 11.013 2.247l4.696 7.103a7.935 7.935 0 0 1-2.247 11.013l-.237.157a7.935 7.935 0 0 1-11.013-2.247l-4.696-7.104a7.935 7.935 0 0 1 2.247-11.013Z" fill="#7DB5FF"/><path d="m84.922 214.532.237-.157a7.935 7.935 0 0 1 11.013 2.247l4.696 7.104a7.935 7.935 0 0 1-2.247 11.013l-.237.156a7.934 7.934 0 0 1-11.013-2.247l-4.696-7.103a7.935 7.935 0 0 1 2.247-11.013Z" fill="#7DB5FF"/><path d="M108.355 205.845a1.424 1.424 0 0 1 1.967.401l5.224 7.775c.431.651.25 1.536-.401 1.966a1.422 1.422 0 0 1-1.966-.401l-5.225-7.775a1.422 1.422 0 0 1 .401-1.966ZM94.86 214.768a1.423 1.423 0 0 1 1.967.401l5.225 7.775c.431.651.25 1.536-.401 1.967-.651.43-1.536.25-1.967-.402l-5.224-7.774a1.424 1.424 0 0 1 .4-1.967Z" fill="#000"/><path fill-rule="evenodd" clip-rule="evenodd" d="M109.485 86.457c-2.97 1.013-5.138 3.767-5.72 8.352-.194 1.527-1.404 2.79-2.943 2.8l-9.289.065c-1.539.011-2.808-1.23-2.695-2.764.656-8.888 4.886-18.782 15.838-22.519 11.705-3.993 24.438 2.26 28.441 13.966 2.332 6.82.097 13.872-2.986 18.907-2.67 4.36-6.714 8.466-11.528 10.838-1.38.68-2.974-.11-3.472-1.567l-3.005-8.791c-.498-1.457.292-3.064 1.52-3.991 1.331-1.004 2.705-2.456 3.808-4.256 1.858-3.034 1.941-5.34 1.599-6.342a7.54 7.54 0 0 0-9.568-4.698Z" fill="#E5E5E5"/><path d="M116.947 127.985c-1.448-4.243.966-8.39 5.025-9.775 4.149-1.416 8.683.365 10.129 4.605 1.447 4.239-1.022 8.511-5.171 9.927-4.059 1.385-8.537-.517-9.983-4.757Z" fill="#E5E5E5"/><path d="M181.642 128.575a1.734 1.734 0 1 0-1.218 3.25l1.218-3.25Zm17.29 10.19a1.734 1.734 0 1 0 1.219-3.249l-1.219 3.249Zm-18.508-6.94 18.508 6.94 1.219-3.249-18.509-6.941-1.218 3.25Z" fill="#000"/></svg>