<svg viewBox="0 0 400 300" fill="none" xmlns="http://www.w3.org/2000/svg"><circle cx="135.232" cy="59.296" r="2.679" fill="#5783FC"/><circle cx="143.269" cy="59.296" r="2.679" fill="#FC466F"/><circle cx="151.306" cy="59.296" r="2.679" fill="#DFE8FE"/><path d="M229.619 260.902h32.51c-.297-3.287-4.982-4.874-7.479-6.137-1.998-1.011-4.501-7.023-5.114-9.685l-19.239 3.848-.678 11.974ZM201.375 260.902h-32.51c.297-3.287 4.982-4.874 7.479-6.137 1.998-1.011 4.501-7.023 5.114-9.685l19.239 3.848.678 11.974Z" fill="#020641"/><path stroke="#fff" stroke-width="1.134" d="m247.051 249.9 4.654-.606M183.943 249.9l-4.654-.606M247.326 252.013l5.27-.722M183.669 252.013l-5.27-.722"/><path d="m176.443 247.489 11.721-104.812h51.904l15.068 104.812-29.468 2.009-12.055-80.367-10.046 80.367-27.124-2.009Z" fill="#5783FC"/><path d="M221.236 158.095a.568.568 0 0 0-.802-.802l.802.802Zm-6.07 3.567-.137-.549-.429.107v.442h.566Zm-1.128 6.156a.567.567 0 0 0 1.123.16l-1.123-.16Zm6.396-10.525a25.769 25.769 0 0 1-2.52 2.188c-1.044.791-2.099 1.435-2.885 1.632l.275 1.099c1.028-.257 2.241-1.029 3.294-1.826a27.108 27.108 0 0 0 2.638-2.291l-.802-.802Zm-5.834 4.369c0 1.318-.373 4.837-.562 6.156l1.123.16c.189-1.327.572-4.912.572-6.316H214.6Z" fill="#000"/><path d="M219.641 94.121c-28.664-2.143-61.163 2.918-78.169 14.255 2.232 7.144 6.642 20.638 9.857 26.264 13.93-10.716 29.691-14.734 38.174-16.743l-1.674 25.115h52.239l-3.349-25.115 18.752 12.055 7.879-25.544c-5.102-2.834-15.045-8.143-43.709-10.287Z" fill="#011650"/><path d="M276.545 129.282c2.143-8.572 0-16.371-13.761-23.173-2.121 5.358-5.731 18.625-6.802 22.108 3.348 1.005 8.842 4.749 10.517 6.088-1.005 1.34-2.009 3.684 0 4.688 2.009 1.005 7.367 1.005 10.046-9.711ZM120.498 142.677c.536-19.02 12.835-28.684 21.541-32.033 2.121 5.693 7.164 18.626 8.504 22.108-3.014 3.349-11.627 11.934-14.976 13.943 1.071 1.608-.447 3.572-1.34 4.354.782 1.227 1.608 3.683-1.339 3.683-8.706.335-12.39-7.367-12.39-12.055Z" fill="#FC466F"/><path d="M275.5 127.943c-2.902 3.349-9.041 8.974-10.381 4.688-.803-1.875.558-3.237 1.34-3.684M125.033 143.286c2.902 3.349 9.041 8.974 10.381 4.688.803-1.875-.558-3.237-1.34-3.683" stroke="#000" stroke-width="1.134" stroke-linecap="round"/><path d="M265.493 137.654c-.223-1.005.296-2.813 1.635-3.349M135.04 152.997c.223-1.005-.296-2.813-1.635-3.349M270.811 112.874l-3.683 4.353M128.435 127.083l4.97 5.487M273.827 117.227c-1.228 2.009-4.688 6.362-8.707 7.702-1.674 1.339-2.009 4.353.67 4.018 2.679-.335 8.037-4.353 9.376-7.032M126.707 132.57c1.228 2.009 7.396 6.654 8.707 7.702 1.674 1.34 2.009 4.353-.67 4.019-2.679-.335-8.037-4.354-9.376-7.033" stroke="#000" stroke-width="1.134" stroke-linecap="round"/><path d="M126.86 131.618v-79.69h141.313v61.55M126.86 153.727v20.092h141.313v-34.156M122.07 66.766h150.894M97.763 81.733l12.273 7.086M90.394 108.376l19.925-7.369" stroke="#F6BCD1" stroke-width="1.134" stroke-linecap="round" stroke-linejoin="round"/><path d="M80.829 170.22c1.885 6.938 9.117 11.055 16.153 9.196l-6.828-25.123c-7.035 1.859-11.21 8.99-9.325 15.927Z" fill="#5783FC"/><path d="M316.501 91.812c.849-.225 1.625.541 1.398 1.378l-2.945 10.838c-.228.838-1.289 1.118-1.91.505l-8.047-7.934c-.622-.613-.337-1.659.512-1.883l10.992-2.904Z" fill="#FF3175"/><path fill="#DFE8FE" d="M305.3 132.752h6.803v6.803H305.3z"/><path fill-rule="evenodd" clip-rule="evenodd" d="M222.221 86.264c5.92-3.316 8.031-10.803 4.715-16.723-3.316-5.92-10.803-8.03-16.722-4.715a12.255 12.255 0 0 0-6.038 8.282 6.143 6.143 0 1 0 3.467 11.24c3.797 3.701 9.716 4.639 14.578 1.916Z" fill="#FC466F"/><path d="M227.654 57.806c-4.631-8.268-11.363-3.526-14.149-.121-6.784-2.235-8.713 6.891-9.004 9.066-2.297 1.286-3.231 2.313-3.904 4.701-.539 1.912.756 4.942 1.47 6.218 1.292-.389 4.003-.935 4.518-.016.723 2.009 1.812 2.338 2.266 2.25 1.149-.643.347-2.619-.015-4.517-.782-4.088 6.176-5.135 9.187-5.146 5.14-.7 14.262-4.166 9.631-12.435Z" fill="#202020"/><path d="M224.236 178.102c3.03 11.306 11.592 18.818 22.675 19.84" stroke="#1C46BA" stroke-width="1.134" stroke-linecap="round"/><ellipse cx="250.504" cy="170.688" rx="27.534" ry="27.202" transform="rotate(-27.17 250.504 170.688)" fill="#DFE8FE"/><ellipse cx="250.163" cy="171.332" rx="21.875" ry="21.611" transform="rotate(-15 250.163 171.332)" fill="#fff"/><mask id="a" style="mask-type:alpha" maskUnits="userSpaceOnUse" x="228" y="149" width="45" height="44"><ellipse cx="250.163" cy="171.332" rx="21.875" ry="21.611" transform="rotate(-15 250.163 171.332)" fill="#fff"/></mask><g mask="url(#a)"><path d="m164.825 270.132 14.798-132.387h65.531l19.025 132.387-37.205 2.538-15.22-101.511-12.683 101.511-34.246-2.538Z" fill="#5783FC"/><path d="M102.269 123.912V23.672h177.855v77.422m-177.855 50.628v25.274h177.855v-42.965" stroke="#F6BCD1" stroke-width="1.227" stroke-linecap="round" stroke-linejoin="round"/></g><path d="M271.04 165.738c3.039 11.344-3.831 23.058-15.369 26.149-11.538 3.092-23.344-3.617-26.384-14.962-3.039-11.344 3.831-23.057 15.369-26.149 11.538-3.092 23.344 3.618 26.384 14.962Z" stroke="#DFE8FE" stroke-width="1.227"/><path d="M257.005 150.301a22.14 22.14 0 0 1 8.586 5.259M271.114 164.915c3.13 11.68-3.945 23.724-15.802 26.901M268.201 183.734l16.841 10.866" stroke="#011650" stroke-width="1.227" stroke-linecap="round"/><path stroke="#fff" stroke-width="1.134" d="m177.256 239.896 27.21 3.401"/><path d="M191.358 110.076s-1.701 3.969-2.268 8.504" stroke="#fff" stroke-width="1.134" stroke-linecap="round"/><path d="m224.804 243.292 29.477-2.267" stroke="#fff" stroke-width="1.134"/></svg>