<svg viewBox="0 0 400 300" fill="none" xmlns="http://www.w3.org/2000/svg"><path d="M237.781 230.711a1.985 1.985 0 0 1-1.985-1.985v-23.944a1.985 1.985 0 0 0-1.985-1.985h-67.673a1.985 1.985 0 0 0-1.985 1.985v23.944a1.985 1.985 0 0 1-1.985 1.985h-12.17a1.985 1.985 0 0 0-1.984 1.985v1.753c0 1.096.888 1.985 1.984 1.985h99.953a1.985 1.985 0 0 0 1.984-1.985v-1.753a1.985 1.985 0 0 0-1.984-1.985h-12.17Z" fill="#D6D6D6"/><path d="M297.077 63.882H102.88a6.063 6.063 0 0 0-6.08 6.072V206.99a6.062 6.062 0 0 0 6.08 6.072h194.241a6.063 6.063 0 0 0 6.08-6.072V69.954c-.044-3.363-2.756-6.072-6.124-6.072Z" fill="#E5E5E5"/><path d="M203.739 198.077c2.624 3.757-1.487 7.907-5.249 5.242-.131-.087-.219-.218-.306-.306-2.624-3.756 1.487-7.906 5.249-5.242.131.044.218.175.306.306Z" fill="#E5E5E5"/><path d="M291.493 184.729H108.498a1.762 1.762 0 0 1-1.779-1.771V76.353c0-.988.786-1.77 1.779-1.77h182.995c.993 0 1.78.782 1.78 1.77v106.605c0 .988-.828 1.771-1.78 1.771Z" fill="#fff"/><path d="M139.764 84.807c0 1.89-1.524 3.401-3.43 3.401-1.905 0-3.43-1.511-3.43-3.4 0-1.89 1.525-3.402 3.43-3.402 1.906 0 3.43 1.512 3.43 3.401ZM119.468 84.807c0 1.89-1.524 3.401-3.43 3.401-1.905 0-3.43-1.511-3.43-3.4 0-1.89 1.525-3.402 3.43-3.402 1.906 0 3.43 1.512 3.43 3.401ZM129.67 84.807c0 1.89-1.524 3.401-3.429 3.401-1.906 0-3.43-1.511-3.43-3.4 0-1.89 1.524-3.402 3.43-3.402 1.81 0 3.429 1.512 3.429 3.401Z" fill="#D6D6D6"/><rect width="94.446" height="166.489" rx="9.954" transform="scale(-1 1) rotate(18.855 -280.138 -620.695)" fill="#1E4BFF"/><rect width="82.374" height="135.104" rx="6.221" transform="scale(-1 1) rotate(18.855 -305.865 -606.284)" fill="#fff"/><circle r="6.876" transform="scale(-1 1) rotate(18.855 -767.327 -555.46)" fill="#fff"/><path d="M251.783 43.166a27.011 27.011 0 0 0-31.246 21.335l-2.757 16.157-3.565-.608a18.327 18.327 0 0 0-21.096 14.495l-5.485 32.143a18.315 18.315 0 0 0 15.023 21.099l60.779 10.371a18.314 18.314 0 0 0 21.169-14.924l5.412-31.715a18.315 18.315 0 0 0-15.023-21.099l-3.565-.608 2.676-15.687a26.992 26.992 0 0 0-22.322-30.959Zm-10.387 64.915a6.597 6.597 0 0 0-7.559 5.079l-1.525 8.941a6.607 6.607 0 0 0 5.265 7.496 6.613 6.613 0 0 0 7.701-4.96l1.526-8.942a6.61 6.61 0 0 0-1.125-4.929 6.597 6.597 0 0 0-4.283-2.685Zm8.172-51.938a13.8 13.8 0 0 1 11.566 15.388l-2.74 16.057-27.579-4.706 2.676-15.687a13.804 13.804 0 0 1 16.077-11.051Z" fill="#FDD73D"/><rect width="15.782" height="34.194" rx="7.891" transform="scale(-1 1) rotate(-9.683 484.478 1529.004)" fill="#fff"/><path d="m181.431 123.663-7.88-2.113c-.287-.047-.465-.268-.589-.549l-2.666-7.71c-.256-.789-1.394-.748-1.594.056l-2.113 7.88c-.047.287-.268.465-.549.589l-7.71 2.666c-.789.256-.748 1.394.056 1.593l7.88 2.114c.287.047.466.268.589.549l2.666 7.71c.256.788 1.394.748 1.594-.057l2.113-7.879c.047-.287.268-.466.549-.589l7.71-2.667c.789-.255.748-1.393-.056-1.593Z" fill="#386CF4"/><path d="M189.483 198.293c1.788-16.515 13.801-21.272 21.802-21.802 1.642-.108 2.74 1.505 2.253 3.076l-12.015 38.806c-17.261 20.997-50.568 36.554-66.257 42.174a2.526 2.526 0 0 1-2.307-.321L95.757 234.16a2.593 2.593 0 0 1-.985-2.849c12.898-43.567 23.432-57.075 26.064-59.988 2.013-2.227 7.723-3.748 11.48-3.748 1.549-1.585 2.949-8.009 7.386-8.985 3.939-.867 11.319-.835 15.609.864 9.488-8.493 19.353-2.687 23.1 1.278l20.153-33.863c11.348-5.885 15.343 1.893 15.922 6.517l-31.676 63.618c-1.181 2.373 1.562 4.768 3.753 3.276l2.92-1.987Z" fill="#FE5274"/><path d="M155.229 159.631a2.036 2.036 0 0 1 .862 2.739l-6.107 11.928a2.036 2.036 0 0 1-2.739.862 2.037 2.037 0 0 1-.862-2.739l6.107-11.929a2.036 2.036 0 0 1 2.739-.861ZM132.271 167.129a2.037 2.037 0 0 1 .861 2.739l-6.107 11.929a2.037 2.037 0 0 1-2.739.861 2.037 2.037 0 0 1-.862-2.739l6.107-11.929a2.038 2.038 0 0 1 2.74-.861ZM177.843 158.38a2.036 2.036 0 0 1 .861 2.739l-6.107 11.928a2.036 2.036 0 0 1-2.739.861 2.036 2.036 0 0 1-.861-2.739l6.107-11.928a2.036 2.036 0 0 1 2.739-.861Z" fill="#000"/><path d="M212.475 178.87c-4.52 2.464-12.443 9.832-5.338 17.239" stroke="#000" stroke-width="2.574" stroke-linecap="round"/></svg>