<svg viewBox="0 0 400 300" fill="none" xmlns="http://www.w3.org/2000/svg"><path d="M311.797 187.593c1.16 2.103 2.9 3.842 4.93 4.93-2.103 1.159-3.842 2.899-4.93 4.929-1.16-2.102-2.9-3.842-4.93-4.929 2.03-1.16 3.77-2.827 4.93-4.93Z" fill="#FC466F"/><path d="M95 215.618h213.182M316.667 215.619h19.515" stroke="#011650" stroke-width="1.697" stroke-linecap="round"/><path d="M295.629 214.627V103.698H82.951v110.929H295.63Z" fill="#DFE8FE"/><path d="M82.951 82.308a5.09 5.09 0 0 1 5.091-5.09h195.344c6.761 0 12.243 5.48 12.243 12.242v15.298H82.951v-22.45Z" fill="#5783FC"/><path d="M270.71 72.363v49.722c0 1.358 1.638 2.043 2.605 1.089l16.45-16.225h39.024a5.09 5.09 0 0 0 5.091-5.091V72.363a5.09 5.09 0 0 0-5.091-5.091h-52.988a5.09 5.09 0 0 0-5.091 5.09Z" fill="#5CE0D2"/><path d="m269.618 115.255 32.368-31.585v15.923l24.538-24.537" stroke="url(#a)" stroke-width="1.616"/><path d="M311.646 74.794h14.879v15.923" stroke="#fff" stroke-width="1.616"/><path d="m269.618 115.255 32.368-31.585v15.923l24.538-24.537" stroke="url(#b)" stroke-width="3.061"/><path d="M311.646 74.794h14.879v15.923" stroke="#fff" stroke-width="3.061"/><circle cx="100.164" cy="91.37" r="3.443" fill="#fff" stroke="#5783FC" stroke-width=".788"/><circle cx="113.935" cy="91.37" r="3.443" fill="#fff" stroke="#5783FC" stroke-width=".788"/><circle cx="127.704" cy="91.37" r="3.443" fill="#fff" stroke="#5783FC" stroke-width=".788"/><path d="M66.504 84.103a4.208 4.208 0 1 0 0-8.415 4.208 4.208 0 0 0 0 8.415Z" fill="#EFC953"/><path stroke="#000" stroke-width=".765" stroke-linecap="round" d="M190.75 119.904v-6.348M198.463 121.422l3.174-5.498M183.805 121.42l-3.173-5.496"/><rect x="157.159" y="129.239" width="64.262" height="76.044" rx=".512" fill="#fff"/><circle cx="189.29" cy="154.943" r="14.995" fill="#5783FC"/><path fill-rule="evenodd" clip-rule="evenodd" d="M189.492 155.144a3.202 3.202 0 1 0 0-6.404 3.202 3.202 0 0 0 0 6.404Zm-6.221 4.542c.675-2.609 3.114-4.542 6.019-4.542 2.906 0 5.345 1.933 6.02 4.542.204.79-.477 1.462-1.293 1.462h-9.454c-.816 0-1.496-.672-1.292-1.462Z" fill="#fff"/><path stroke="#000" stroke-width=".765" d="M171.034 181.435h36.513M177.605 188.737h23.369"/><rect x="236.722" y="139.949" width="43.607" height="51.601" rx=".512" fill="#fff"/><circle cx="258.524" cy="157.392" r="10.175" fill="#5783FC"/><path fill-rule="evenodd" clip-rule="evenodd" d="M258.661 157.529a2.174 2.174 0 1 0 0-4.347 2.174 2.174 0 0 0 0 4.347Zm-4.074 2.631c.603-1.538 2.139-2.631 3.939-2.631 1.8 0 3.336 1.093 3.938 2.631.298.759-.39 1.443-1.206 1.443h-5.465c-.816 0-1.503-.684-1.206-1.443Z" fill="#fff"/><path stroke="#000" stroke-width=".765" d="M246.138 175.245h24.776M250.597 180.2h15.857"/><path d="M79.32 131.535c-33.467 41.771 41.831 28.371 36.099 75.112-3.76 30.658 65.073 33.522 88.407 13.631" stroke="#FF96BC" stroke-width=".788" stroke-linecap="round" stroke-dasharray="3.15 6.31"/><path d="m193.34 228.208-5.069-18.831 43.456-29.696-35.489 35.49-1.449 13.037h-1.449Z" fill="#011650" stroke="#011650" stroke-width="1.449"/><path d="M238.776 173.565c.689.646.892 1.424.634 2.313l-15.739 51.56c-.202.646-.639 1.113-1.303 1.4a2.165 2.165 0 0 1-1.097.137 2.276 2.276 0 0 1-.8-.285l-14.707-8.4-9.646 9.037c-.485.476-1.08.656-1.787.562a1.941 1.941 0 0 1-.743-.238 2.157 2.157 0 0 1-.939-.946 2.163 2.163 0 0 1-.234-1.305l1.578-11.971 34.445-32.441-40.873 26.916-12.82-7.346c-.804-.427-1.182-1.118-1.119-2.072.074-.921.525-1.55 1.367-1.885l61.449-25.422a2.11 2.11 0 0 1 1.14-.163c.461.061.859.246 1.194.549Z" fill="#FF3175"/><rect x="98.25" y="139.949" width="43.607" height="51.601" rx=".512" fill="#fff"/><circle cx="120.053" cy="157.392" r="10.175" fill="#5783FC"/><path fill-rule="evenodd" clip-rule="evenodd" d="M120.19 157.529a2.173 2.173 0 1 0 0-4.347 2.173 2.173 0 0 0 0 4.347Zm-4.074 2.631c.602-1.538 2.138-2.631 3.938-2.631 1.8 0 3.336 1.093 3.938 2.631.298.759-.389 1.443-1.205 1.443h-5.466c-.816 0-1.503-.684-1.205-1.443Z" fill="#fff"/><path stroke="#000" stroke-width=".765" d="M107.665 175.245h24.776M112.125 180.2h15.857"/><path d="m104.367 189.822-42.872 4.795 2.861 25.586 42.872-4.794-2.861-25.587Z" fill="#fff"/><path d="m108.608 216.583-42.876 4.802-.163-1.528 41.661-4.448-2.96-24.242 1.482-.173 2.856 25.589Z" fill="#000"/><path d="m81.783 209.933-1.024-9.175 8.691 3.682-7.667 5.493Z" fill="#FF3175"/><path d="m65.55 194.16-4.057.453 2.861 25.587 4.056-.454-2.86-25.586ZM104.368 189.812l-4.056.453 2.861 25.587 4.056-.454-2.861-25.586Z" fill="#011650"/><path d="m64.483 195.752-1.586.177.178 1.585 1.585-.177-.177-1.585ZM64.953 199.982l-1.585.177.177 1.585 1.585-.177-.177-1.585ZM65.422 204.198l-1.585.177.177 1.585 1.585-.177-.177-1.585ZM65.89 208.415l-1.584.177.177 1.585 1.585-.177-.177-1.585ZM66.374 212.63l-1.585.177.177 1.585 1.585-.177-.177-1.585ZM66.844 216.847l-1.585.177.177 1.585 1.585-.177-.177-1.585ZM103.303 191.417l-1.585.177.177 1.585 1.585-.177-.177-1.585ZM103.773 195.633l-1.585.177.177 1.585 1.585-.177-.177-1.585ZM104.241 199.849l-1.585.177.177 1.585 1.585-.177-.177-1.585ZM104.71 204.065l-1.585.178.177 1.585 1.585-.178-.177-1.585ZM105.194 208.295l-1.585.178.178 1.585 1.585-.178-.178-1.585ZM105.664 212.512l-1.585.177.177 1.585 1.585-.177-.177-1.585Z" fill="#fff"/><path d="M96.747 183.625a10.473 10.473 0 0 0 4.569 3.759 10.468 10.468 0 0 0-3.76 4.569 10.473 10.473 0 0 0-4.568-3.759 10.468 10.468 0 0 0 3.759-4.569ZM70.446 217.708a5.73 5.73 0 0 0 2.476 2.038 5.731 5.731 0 0 0-2.037 2.477 5.73 5.73 0 0 0-2.477-2.038 5.644 5.644 0 0 0 2.038-2.477Z" fill="#FFCA36"/><defs><linearGradient id="a" x1="327.329" y1="73.336" x2="270.554" y2="111.004" gradientUnits="userSpaceOnUse"><stop stop-color="#fff"/><stop offset="1" stop-color="#F1F3FF"/></linearGradient><linearGradient id="b" x1="327.329" y1="73.336" x2="270.554" y2="111.004" gradientUnits="userSpaceOnUse"><stop stop-color="#fff"/><stop offset="1" stop-color="#F1F3FF"/></linearGradient></defs></svg>